<svg xmlns="http://www.w3.org/2000/svg" width="128" height="128" viewBox="0 0 128 128" fill="none"><rect width="128" height="128" fill="#F6F6F7"/><path d="M64 69.3C66.6 69.3 68.7 67.2 68.7 64.7C68.7 62.1 66.6 60 64 60C61.4 60 59.3 62.1 59.3 64.7C59.3 67.2 61.4 69.3 64 69.3Z" fill="#8C9196"/><path fill-rule="evenodd" clip-rule="evenodd" d="M46.7 44C43.4 44 40.7 46.7 40.7 50V78C40.7 81.3 43.4 84 46.7 84H81.3C84.6 84 87.3 81.3 87.3 78V50C87.3 46.7 84.6 44 81.3 44H46.7ZM81.3 78.7H46.7C46.3 78.7 46 78.4 46 78V65.3L52.4 58.9C52.8 58.5 53.5 58.5 53.9 58.9L64 69L74.1 58.9C74.5 58.5 75.2 58.5 75.6 58.9L82 65.3V78C82 78.4 81.7 78.7 81.3 78.7Z" fill="#8C9196"/></svg>
